<svg xmlns="http://www.w3.org/2000/svg" viewBox="0 0 24 24" width="24" height="24" fill="none" stroke="currentColor" stroke-width="1.8" stroke-linecap="round" stroke-linejoin="round" aria-hidden="true">
  <path d="M7.5 9.75c0 1.8-1.6 3.25-3.5 3.25" />
  <path d="M19 9.75c0 1.8-1.6 3.25-3.5 3.25" />
  <path d="M2 6.5c2.1-1.2 4.7-2 7.5-2.25 0.1 0.2 0.2 0.45 0.25 0.7 2.4-0.35 4.85-0.35 7.2 0 0.05-0.25 0.15-0.5 0.25-0.7 2.8 0.25 5.4 1.05 7.5 2.25-0.4 2.1-1.1 4.1-2 5.8-1.2 1.1-2.4 1.95-3.6 2.55-0.6-0.8-1.1-1.5-1.4-2-2.5 0.9-5.2 0.9-7.7 0-0.35 0.5-0.8 1.2-1.4 2-1.2-0.6-2.4-1.45-3.6-2.55-0.9-1.7-1.6-3.7-2-5.8z" />
</svg>
